<?xml version="1.0" standalone="no"?>
<!DOCTYPE svg PUBLIC "-//W3C//DTD SVG 1.1//EN" "http://www.w3.org/Graphics/SVG/1.1/DTD/svg11.dtd" >
<svg xmlns="http://www.w3.org/2000/svg">
<metadata>
Created by FontPrep 20130207 at Thu Aug 13 13:38:53 2015
 By jd
Copyrighted (c) 1981, 1997 by and the property of Linotype-Hell AG and/or its subsidiaries. All Rights Reserved. All Cyrillic characters designed by DoubleAlex. Helvetica is a registered Trademark of Linotype-Hell AG and/or its subsidiaries.
</metadata>
<defs>
<font id="e134913b640f138403f1e25143da3868" horiz-adv-x='1024' >
  <font-face 
    font-family="HelveticaNeueCyr-Light"
    font-weight="300"
    font-stretch="normal"
    units-per-em="2048"
    panose-1="2 0 5 3 4 0 0 2 0 4"
    ascent="1638"
    descent="-410"
    x-height="1053"
    cap-height="1458"
    bbox="-68 -438 2152 1847"
    underline-thickness="102"
    underline-position="-102"
    unicode-range="U+0020-E001"
  />
<missing-glyph horiz-adv-x="2048" 
 />
    <glyph glyph-name=".notdef" horiz-adv-x="2048" 
 />
    <glyph glyph-name=".null" horiz-adv-x="0" 
 />
    <glyph glyph-name="nonmarkingreturn" horiz-adv-x="681" 
 />
    <glyph glyph-name="space" unicode=" " horiz-adv-x="569" 
 />
    <glyph glyph-name="exclam" unicode="!" horiz-adv-x="493" 
d="M324 203v-203h-154v203h154zM315 1458v-428l-30 -663h-76l-31 663v428h137z" />
    <glyph glyph-name="quotedbl" unicode="&#x22;" horiz-adv-x="757" 
d="M571 842h-79l-15 573h109zM268 842h-82l-14 573h111z" />
    <glyph glyph-name="numbersign" unicode="#" 
d="M678 530l65 357h-280l-66 -357h281zM121 887v98h250l80 430h110l-80 -430h281l80 430h110l-80 -430h234v-98h-252l-66 -357h232l2 -98h-252l-80 -432h-110l79 432h-280l-80 -432h-111l80 432h-231l-2 98h252l65 357h-231z" />
    <glyph glyph-name="dollar" unicode="$" 
d="M948 381q0 141 -111 204q-87 50 -239 83v-596q162 2 256 85t94 224zM215 1075q0 -225 307 -270v541q-143 -10 -225 -82t-82 -189zM598 1602v-148q202 -2 318 -102t116 -277v-20h-125q0 147 -79 216t-230 77v-560q477 -70 477 -411q0 -184 -131 -296t-346 -112v-178h-76
v178q-231 4 -353 120t-122 333v10h127v-24q0 -311 348 -334v610q-212 45 -322 127t-110 252t116 274t316 117v148h76z" />
    <glyph glyph-name="percent" unicode="%" horiz-adv-x="1820" 
d="M1366 657q-213 0 -213 -303q0 -141 54 -217q55 -76 157 -76t159 80q56 80 56 226q0 290 -213 290zM1370 745q156 0 238 -96t82 -281q0 -186 -85 -290t-242 -104t-240 100t-83 284t87 286t243 101zM465 1362q-213 0 -213 -303q0 -141 54 -217t156 -76t160 80q56 80 56 225
q0 291 -213 291zM469 1450q156 0 238 -96q81 -96 81 -282t-85 -290t-241 -104t-240 100q-83 100 -83 284t87 286t243 102zM1389 1491l-869 -1557h-106l870 1557h105z" />
    <glyph glyph-name="ampersand" unicode="&#x26;" horiz-adv-x="1251" 
d="M207 367q0 -119 92 -204t225 -85q211 0 342 211l-358 440q-158 -100 -207 -149q-94 -94 -94 -213zM782 1159q0 82 -57 137q-57 56 -143 56t-144 -54t-57 -120q0 -68 26 -117t76 -109t66 -84q233 133 233 291zM78 367q0 264 360 444q-53 68 -84 110q-30 41 -62 111
t-32 131q0 129 91 211t233 82t232 -82q89 -82 89 -206t-78 -212t-209 -172l308 -378q43 113 49 239h121q-4 -82 -29 -177t-59 -159l262 -309h-164l-166 203q-154 -231 -426 -232q-192 0 -314 110t-122 286z" />
    <glyph glyph-name="quotesingle" unicode="'" horiz-adv-x="569" 
d="M326 842h-82l-15 573h111z" />
    <glyph glyph-name="parenleft" unicode="(" horiz-adv-x="493" 
d="M104 529q0 243 78 503t211 438h103q-262 -418 -262 -926t262 -935h-103q-147 260 -218 468t-71 452z" />
    <glyph glyph-name="parenright" unicode=")" horiz-adv-x="493" 
d="M393 529q-1 -244 -71 -452t-218 -468h-102q262 428 262 936t-262 925h102q133 -178 211 -438t78 -503z" />
    <glyph glyph-name="asterisk" unicode="*" horiz-adv-x="720" 
d="M317 1485h84v-250l236 84l29 -78l-240 -80l147 -200l-63 -50l-152 207l-149 -205l-68 50l148 198l-234 80l27 78l235 -84v250z" />
    <glyph glyph-name="plus" unicode="+" horiz-adv-x="1228" 
d="M557 0v444h-453v101h453v444h111v-444h454v-101h-454v-444h-111z" />
    <glyph glyph-name="comma" unicode="," horiz-adv-x="569" 
d="M371 211v-152q0 -135 -35 -219t-146 -123v86q90 37 93 197h-80v211h168z" />
    <glyph glyph-name="hyphen" unicode="-" horiz-adv-x="757" 
d="M637 625v-125h-514v125h514z" />
    <glyph glyph-name="period" unicode="." horiz-adv-x="569" 
d="M371 211v-211h-168v211h168z" />
    <glyph glyph-name="slash" unicode="/" horiz-adv-x="681" 
d="M717 1493l-639 -1528h-109l641 1528h107z" />
    <glyph glyph-name="zero" unicode="0" 
d="M569 1325q-96 0 -167 -44q-72 -44 -108 -107q-92 -158 -91 -492q-1 -604 365 -604t366 624t-365 623zM569 1440q500 0 500 -736t-500 -737q-500 0 -499 719q-1 754 499 754z" />
    <glyph glyph-name="one" unicode="1" 
d="M707 1430v-1430h-136v1065h-370v98q220 6 282 47t83 99q21 57 36 121h105z" />
    <glyph glyph-name="two" unicode="2" 
d="M1018 115v-115h-944q9 134 40 191q30 57 47 90t59 73t62 62q20 20 77 60t77 53t91 61t100 66q29 20 90 70q164 136 164 320q0 121 -87 202t-246 81q-159 -1 -236 -109t-76 -284h-127v18q0 227 122 358q123 130 331 130t329 -111t121 -295q0 -94 -54 -213
q-23 -52 -138 -167q-42 -42 -198 -143q-155 -101 -185 -121q-133 -91 -179 -171q-29 -49 -39 -108l35 2h764z" />
    <glyph glyph-name="three" unicode="3" 
d="M555 1440q205 0 324 -102t118 -265q-1 -117 -65 -201t-176 -110q141 -29 217 -120t76 -230q-1 -199 -137 -322t-358 -123t-354 124t-132 333v33h125v-6q0 -175 97 -273t262 -98t265 89q101 89 101 239t-106 221q-106 70 -271 69q-39 0 -70 -2v109h53q106 0 172 22
q170 63 170 240q0 121 -83 193t-231 72t-235 -94q-88 -93 -94 -265h-121q2 221 125 344t328 123z" />
    <glyph glyph-name="four" unicode="4" 
d="M723 463v565q0 137 2 236q-225 -350 -559 -801h557zM1059 463v-107h-217v-356h-119v356h-662v121l672 957h109v-971h217z" />
    <glyph glyph-name="five" unicode="5" 
d="M971 1415v-115h-621l-102 -495q114 143 322 143t340 -135t132 -347t-139 -354t-353 -142t-343 119q-129 120 -133 321h127q8 -152 101 -242t248 -90t258 108t103 275q0 166 -102 271t-262 106q-207 0 -318 -166l-114 4l141 739h715z" />
    <glyph glyph-name="six" unicode="6" 
d="M585 821q-153 0 -251 -103t-98 -264q0 -162 99 -268t251 -106t249 104t97 268t-97 266q-97 103 -250 103zM606 930q201 0 330 -133t129 -342t-135 -349t-344 -139q-130 -1 -234 57t-170 162q-98 160 -98 510t134 548q134 200 386 200q180 0 292 -97q111 -98 134 -278
h-129q-18 123 -97 194q-78 71 -190 71t-186 -46q-74 -45 -113 -108q-39 -62 -65 -160t-32 -171q-7 -73 -11 -169q57 122 161 186t238 64z" />
    <glyph glyph-name="seven" unicode="7" 
d="M1028 1415v-117q-252 -266 -404 -598t-178 -700h-139q18 348 180 694t416 600h-799v121h924z" />
    <glyph glyph-name="eight" unicode="8" 
d="M567 719q-164 0 -261 -86t-97 -229q0 -142 98 -232t262 -90t261 88q98 88 98 234t-98 230q-98 85 -263 85zM570 1333q-142 1 -225 -69t-83 -188t84 -186t224 -69q140 0 223 69q81 68 81 188t-80 188q-82 67 -224 67zM570 1448q196 0 314 -98t117 -260q0 -242 -231 -316
q135 -29 213 -124t78 -234q0 -205 -132 -324q-133 -119 -359 -119t-359 117t-133 313q0 143 76 241t215 130q-111 31 -172 112t-62 195q0 167 119 267q120 100 316 100z" />
    <glyph glyph-name="nine" unicode="9" 
d="M546 1333q-150 0 -248 -105t-97 -266q0 -160 96 -262t249 -102t250 101t97 263t-99 266q-98 105 -248 105zM543 80q338 0 375 522q4 47 4 107v39q-109 -264 -394 -265q-202 0 -330 133t-128 343q0 211 135 349t342 138q260 0 395 -205q106 -164 107 -498q0 -221 -46 -394
t-168 -276t-299 -103q-176 0 -296 100q-120 102 -134 272h125q19 -122 103 -192t209 -70z" />
    <glyph glyph-name="colon" unicode=":" horiz-adv-x="569" 
d="M371 1026v-211h-168v211h168zM371 211v-211h-168v211h168z" />
    <glyph glyph-name="semicolon" unicode=";" horiz-adv-x="569" 
d="M371 211v-152q0 -135 -35 -219t-146 -123v86q90 37 93 197h-80v211h168zM371 1026v-211h-168v211h168z" />
    <glyph glyph-name="less" unicode="&#x3c;" horiz-adv-x="1228" 
d="M98 477v111l1018 409v-110l-891 -355l891 -352v-108z" />
    <glyph glyph-name="equal" unicode="=" horiz-adv-x="1228" 
d="M104 281v98h1018v-98h-1018zM104 655v99h1018v-99h-1018z" />
    <glyph glyph-name="greater" unicode="&#x3e;" horiz-adv-x="1228" 
d="M1130 477l-1017 -405v108l891 352l-891 355v110l1017 -409v-111z" />
    <glyph glyph-name="question" unicode="?" horiz-adv-x="1099" 
d="M618 205v-205h-153v205h153zM100 1004q0 211 116 347t322 136q206 -1 323 -105q118 -104 118 -272q0 -70 -16 -126q-17 -56 -63 -114t-70 -83q-24 -23 -104 -99t-100 -136q-22 -60 -22 -192h-123q0 172 37 246t170 205l27 27q129 129 129 257q0 127 -81 203t-212 76
q-166 0 -246 -106t-80 -264h-125z" />
    <glyph glyph-name="at" unicode="@" horiz-adv-x="1638" 
d="M1051 873q1 87 -49 141t-130 55q-116 0 -210 -129t-95 -289q0 -107 49 -169q50 -62 136 -62t158 82t107 183q34 101 34 188zM855 -27q-331 0 -562 201t-231 532t238 554q239 223 593 223q303 0 493 -168t191 -434q0 -215 -124 -374t-292 -159q-71 0 -113 39t-42 102
q0 20 14 76q-111 -217 -301 -217q-121 0 -197 84t-76 217q0 197 121 344t283 148q102 0 169 -51t83 -144l49 166h102l-116 -389q-47 -154 -47 -204t26 -75t72 -24q121 0 219 142t98 319q0 236 -170 383t-444 147q-322 0 -539 -204t-217 -503t212 -479q211 -180 517 -180
t578 197l41 -54q-297 -215 -628 -215z" />
    <glyph glyph-name="A" unicode="A" horiz-adv-x="1290" 
d="M934 571l-287 760l-295 -760h582zM725 1462l582 -1462h-154l-176 459h-668l-178 -459h-149l589 1462h154z" />
    <glyph glyph-name="B" unicode="B" horiz-adv-x="1366" 
d="M283 700v-581h436q309 0 391 142q37 63 37 153t-38 150q-86 136 -398 136h-428zM283 1339v-526h462q145 0 246 61t101 212t-123 208q-98 45 -260 45h-426zM147 1458h625q197 0 327 -90t130 -274q0 -117 -73 -207t-179 -115q135 -27 222 -113t87 -241q0 -202 -140 -310
t-353 -108h-646v1458z" />
    <glyph glyph-name="C" unicode="C" horiz-adv-x="1441" 
d="M748 -33q-303 0 -486 207q-182 207 -182 542t181 556t499 221q221 0 396 -130t200 -343h-139q-33 162 -158 257t-303 95q-242 0 -390 -177t-148 -468t146 -466t372 -175t352 130q124 130 149 343h137q-24 -270 -194 -431t-432 -161z" />
    <glyph glyph-name="D" unicode="D" horiz-adv-x="1402" 
d="M285 1339v-1220h366q535 0 535 629q0 280 -132 436t-380 155h-389zM145 1458h529q328 0 490 -189t161 -517q0 -328 -158 -540t-481 -212h-541v1458z" />
    <glyph glyph-name="E" unicode="E" horiz-adv-x="1214" 
d="M1159 1458v-119h-872v-526h817v-117h-817v-577h880v-119h-1020v1458h1012z" />
    <glyph glyph-name="F" unicode="F" horiz-adv-x="1099" 
d="M1075 1458v-119h-792v-524h704v-119h-704v-696h-138v1458h930z" />
    <glyph glyph-name="G" unicode="G" horiz-adv-x="1517" 
d="M1399 741v-741h-92l-25 207l-4 65q-66 -145 -200 -226t-312 -81q-305 0 -496 208q-190 208 -190 547t191 554t501 215q236 0 404 -128t202 -353h-133q-31 168 -163 265t-308 97q-254 0 -406 -178t-151 -471q0 -293 153 -466t402 -173q195 0 331 114t165 302q8 57 8 129
h-500v114h623z" />
    <glyph glyph-name="H" unicode="H" horiz-adv-x="1441" 
d="M1294 1458v-1458h-137v705h-872v-705h-140v1458h140v-635h872v635h137z" />
    <glyph glyph-name="I" unicode="I" horiz-adv-x="454" 
d="M297 1458v-1458h-139v1458h139z" />
    <glyph glyph-name="J" unicode="J" horiz-adv-x="1024" 
d="M881 1458v-1063q0 -428 -412 -428q-221 0 -321 113q-99 113 -99 334q0 29 2 57h133v-43q0 -174 58 -260t225 -86q166 0 221 90t55 260v1026h138z" />
    <glyph glyph-name="K" unicode="K" horiz-adv-x="1327" 
d="M283 0h-138v1458h138v-784l850 784h184l-658 -596l691 -862h-179l-610 768l-278 -254v-514z" />
    <glyph glyph-name="L" unicode="L" horiz-adv-x="1099" 
d="M1108 119v-119h-958v1458h139v-1339h819z" />
    <glyph glyph-name="M" unicode="M" horiz-adv-x="1705" 
d="M1563 1458v-1458h-133v881q0 213 16 458q-43 -135 -96 -264l-430 -1075h-125l-437 1063q-45 109 -96 268q16 -240 17 -446v-885h-134v1458h189l424 -1040q20 -51 100 -275q10 27 43 123t53 148l418 1044h191z" />
    <glyph glyph-name="N" unicode="N" horiz-adv-x="1441" 
d="M1294 1458v-1458h-153l-678 979q-135 197 -193 311q10 -145 11 -348v-942h-136v1458h154l682 -989q115 -166 190 -305q-10 322 -10 385v909h133z" />
    <glyph glyph-name="O" unicode="O" horiz-adv-x="1517" 
d="M1307 727q1 289 -151 467t-398 178t-397 -176t-151 -466t150 -467t398 -177t398 176t151 465zM757 1493q306 0 497 -213q192 -213 192 -554t-190 -551t-499 -210q-308 0 -497 211q-188 211 -188 553t189 553q190 211 496 211z" />
    <glyph glyph-name="P" unicode="P" horiz-adv-x="1290" 
d="M293 1339v-600h442q162 0 262 73q101 74 101 226t-92 227t-256 74h-457zM154 1458h624q211 0 335 -105t124 -309t-125 -313t-338 -108h-481v-623h-139v1458z" />
    <glyph glyph-name="Q" unicode="Q" horiz-adv-x="1517" 
d="M758 1366q-244 0 -396 -177t-152 -467t150 -465q152 -175 406 -175q152 0 264 78l-192 145l71 88l215 -168q182 203 182 496t-151 469q-153 176 -397 176zM760 -37q-307 0 -498 210q-190 210 -190 550t190 552t496 212t495 -211q191 -210 191 -562t-215 -567l207 -157
l-70 -88l-229 174q-143 -113 -377 -113z" />
    <glyph glyph-name="R" unicode="R" horiz-adv-x="1366" 
d="M287 1339v-577h411q310 0 391 140q36 62 35 155q0 283 -362 282h-475zM147 1458h660q207 0 331 -97t124 -296q0 -141 -75 -235t-210 -125q133 -25 189 -102t67 -228q0 -309 70 -375h-158q-31 39 -37 178t-6 146q-14 200 -96 264t-291 63h-428v-651h-140v1458z" />
    <glyph glyph-name="S" unicode="S" horiz-adv-x="1290" 
d="M630 1370q-176 0 -274 -72q-96 -72 -96 -202q0 -99 52 -146q30 -27 56 -44t96 -39t171 -44q292 -65 360 -100q125 -64 170 -138t45 -206t-83 -232t-201 -139t-264 -39q-272 0 -428 133q-155 133 -154 367v12h133q0 -199 122 -299q121 -100 323 -100t311 80t109 219
t-104 197q-103 58 -390 127q-92 20 -136 32t-118 43t-110 67t-64 97q-29 61 -29 143q0 184 136 292t373 108t378 -114t151 -335h-135q-8 162 -116 247t-284 85z" />
    <glyph glyph-name="T" unicode="T" 
d="M1151 1458v-119h-512v-1339h-139v1339h-512v119h1163z" />
    <glyph glyph-name="U" unicode="U" horiz-adv-x="1402" 
d="M1270 1458v-911q0 -577 -564 -577q-284 0 -428 146q-144 148 -145 435v907h139v-872q0 -252 96 -376t344 -124q249 0 339 139q45 70 62 156t17 207v870h140z" />
    <glyph glyph-name="V" unicode="V" horiz-adv-x="1214" 
d="M1231 1458l-541 -1458h-162l-546 1458h155l381 -1048q53 -147 92 -291q12 37 43 136t52 153l378 1050h148z" />
    <glyph glyph-name="W" unicode="W" horiz-adv-x="1857" 
d="M1851 1458l-403 -1458h-150l-297 1026q-57 203 -73 301q-16 -53 -42 -153t-38 -144l-291 -1030h-151l-404 1458h145l273 -1012q27 -100 67 -301q23 127 74 301l289 1012h158l295 -1026q55 -190 69 -287q8 33 30 133t36 152l274 1028h139z" />
    <glyph glyph-name="X" unicode="X" horiz-adv-x="1175" 
d="M1165 1458l-497 -708l526 -750h-168l-364 522q-43 61 -56 85q-12 24 -22 40q-25 -25 -84 -123l-369 -524h-160l531 750l-498 708h164l326 -467q18 -27 48 -77t42 -68q51 74 94 147l334 465h153z" />
    <glyph glyph-name="Y" unicode="Y" horiz-adv-x="1251" 
d="M696 0h-137v602l-579 856h165l408 -610l80 -129q35 66 74 123l409 616h158l-578 -856v-602z" />
    <glyph glyph-name="Z" unicode="Z" horiz-adv-x="1175" 
d="M1130 1458v-121l-962 -1218h983v-119h-1141v125l963 1214h-895v119h1052z" />
    <glyph glyph-name="bracketleft" unicode="[" horiz-adv-x="493" 
d="M487 1479v-101h-211v-1652h211v-103h-331v1856h331z" />
    <glyph glyph-name="backslash" unicode="\" horiz-adv-x="681" 
d="M717 -35h-109l-639 1528h107z" />
    <glyph glyph-name="bracketright" unicode="]" horiz-adv-x="493" 
d="M338 1479v-1856h-332v103h211v1650h-211v103h332z" />
    <glyph glyph-name="asciicircum" unicode="^" horiz-adv-x="1228" 
d="M217 608l344 850h109l342 -850h-117l-283 721l-276 -721h-119z" />
    <glyph glyph-name="underscore" unicode="_" horiz-adv-x="1024" 
d="M0 -256v102h1024v-102h-1024z" />
    <glyph glyph-name="grave" unicode="`" horiz-adv-x="378" 
d="M96 1503l213 -289h-102l-275 289h164z" />
    <glyph glyph-name="a" unicode="a" horiz-adv-x="1062" 
d="M462 78q130 0 234 89t105 234v172q-39 -44 -193 -61q-153 -18 -198 -30q-137 -35 -182 -100q-28 -42 -27 -103q0 -92 65 -147q66 -54 196 -54zM526 975q-263 0 -286 -248h-123q8 170 119 262t298 92q187 1 290 -77t104 -226v-573q0 -41 2 -59q5 -47 67 -48q27 0 50 6v-98
q-47 -16 -117 -16t-96 51t-27 141q-133 -211 -397 -211q-162 0 -253 78t-91 217q0 285 391 326q20 2 57 5t54 5t69 8q72 8 127 37q37 25 37 101q0 125 -70 176t-205 51z" />
    <glyph glyph-name="b" unicode="b" horiz-adv-x="1175" 
d="M605 977q-165 0 -262 -122t-97 -329q0 -208 98 -330t262 -122t261 123t97 329t-96 329q-98 122 -263 122zM250 1458v-604q47 111 146 171t229 60q215 1 343 -151t128 -408t-129 -406t-349 -151q-135 1 -233 61t-143 175v-205h-117v1458h125z" />
    <glyph glyph-name="c" unicode="c" horiz-adv-x="1062" 
d="M561 -31q-221 0 -354 150q-133 151 -133 403t134 407t357 154q182 0 296 -96t136 -266h-131q-51 256 -299 256q-166 0 -263 -122t-97 -329q0 -206 94 -328q95 -122 241 -122t230 79t105 222h129q-27 -184 -143 -296t-302 -112z" />
    <glyph glyph-name="d" unicode="d" horiz-adv-x="1175" 
d="M572 977q-171 0 -268 -122t-97 -329q0 -208 97 -330t263 -122t263 121q98 121 98 320t-92 331q-93 131 -264 131zM1049 1458v-1458h-117v207q-46 -117 -146 -177t-233 -61q-219 0 -347 151q-128 152 -128 406t128 406t343 151q274 0 375 -227v602h125z" />
    <glyph glyph-name="e" unicode="e" horiz-adv-x="1062" 
d="M536 975q-154 -1 -236 -105q-83 -104 -103 -270h684q-11 176 -101 276t-244 99zM66 514q0 250 134 409t352 159t338 -158t120 -392v-36h-813q0 -182 89 -304t267 -122q260 0 321 276h125q-35 -178 -151 -279t-318 -101q-200 0 -332 149t-132 399z" />
    <glyph glyph-name="f" unicode="f" horiz-adv-x="530" 
d="M557 1352q-43 6 -106 6t-95 -28q-31 -28 -35 -103q-1 -20 -2 -70v-104h211v-105h-211v-948h-129v948h-180v105h180v121q0 150 60 222t209 72q39 0 98 -8v-108z" />
    <glyph glyph-name="g" unicode="g" 
d="M547 971q-158 0 -251 -115q-93 -116 -93 -310t92 -308t251 -115q159 0 253 118t94 312t-94 306t-252 112zM1016 1053v-996q0 -471 -471 -471q-193 0 -305 83t-123 235h129q31 -217 305 -217q186 0 265 96t79 285v176q-106 -231 -365 -232q-208 0 -332 142t-124 386
q0 242 128 392t339 149q250 0 358 -227v199h117z" />
    <glyph glyph-name="h" unicode="h" horiz-adv-x="1099" 
d="M250 1458q0 -524 -2 -604q113 225 364 225q182 0 276 -99t93 -284v-696h-129v680q0 291 -270 291q-170 0 -251 -116t-81 -300v-555h-127v1458h127z" />
    <glyph glyph-name="i" unicode="i" horiz-adv-x="378" 
d="M254 1053v-1053h-129v1053h129zM254 1464v-211h-129v211h129z" />
    <glyph glyph-name="j" unicode="j" horiz-adv-x="378" 
d="M260 1466v-211h-127v211h127zM260 1053v-1123q0 -88 -7 -139t-31 -101q-46 -95 -216 -93q-20 0 -63 6v106q23 -2 63 -2t67 9q60 21 60 202v1135h127z" />
    <glyph glyph-name="k" unicode="k" horiz-adv-x="1024" 
d="M250 0h-123v1458h123v-919l588 514h172l-451 -387l481 -666h-161l-420 578l-209 -179v-399z" />
    <glyph glyph-name="l" unicode="l" horiz-adv-x="378" 
d="M254 1458v-1458h-127v1458h127z" />
    <glyph glyph-name="m" unicode="m" horiz-adv-x="1705" 
d="M246 1053v-185q68 106 149 160q82 53 199 53t196 -54t107 -150q109 205 350 204q143 0 241 -83t97 -246v-752h-129v717q0 250 -244 250q-139 0 -216 -87t-76 -235v-645h-127v707q0 260 -232 260q-155 -1 -231 -103t-76 -266v-598h-129v1053h121z" />
    <glyph glyph-name="n" unicode="n" horiz-adv-x="1099" 
d="M244 1053v-199q66 117 152 172q88 55 236 55t248 -90t101 -274v-717h-129v676q0 293 -268 293q-152 1 -242 -101t-90 -299v-569h-129v1053h121z" />
    <glyph glyph-name="o" unicode="o" 
d="M569 975q-168 0 -268 -122t-100 -329q0 -208 99 -328t270 -120t270 121q98 121 98 327t-100 329q-101 122 -269 122zM70 526q0 254 136 406t364 151q228 0 363 -151q134 -152 134 -409t-133 -405q-132 -148 -362 -148t-366 150q-136 152 -136 406z" />
    <glyph glyph-name="p" unicode="p" horiz-adv-x="1175" 
d="M606 977q-166 0 -261 -121t-95 -330q0 -210 97 -330t261 -120t261 122t97 326t-96 329q-98 124 -264 124zM246 1053v-203q115 233 377 233q215 1 345 -153t130 -406t-129 -404t-342 -153q-266 0 -373 228v-588h-125v1446h117z" />
    <glyph glyph-name="q" unicode="q" horiz-adv-x="1175" 
d="M567 979q-166 0 -263 -123t-97 -331q0 -207 96 -327t261 -120t262 122q98 122 98 330t-96 329q-96 120 -261 120zM1047 1053v-1444h-127q0 420 2 588q-106 -225 -377 -226q-215 1 -341 149t-126 404t130 409t349 152q262 0 371 -233v201h119z" />
    <glyph glyph-name="r" unicode="r" horiz-adv-x="645" 
d="M266 430v-430h-127v1053h121v-252q68 145 156 205t246 63v-131l-35 2q-119 0 -212 -69t-121 -173t-28 -268z" />
    <glyph glyph-name="s" unicode="s" horiz-adv-x="985" 
d="M879 745h-125q-18 229 -285 230q-113 0 -179 -47t-67 -122q0 -75 39 -111q39 -37 113 -56q73 -21 145 -37q233 -54 309 -118q35 -30 61 -80t25 -113q0 -145 -115 -235q-116 -89 -310 -89q-194 1 -308 99q-113 98 -116 278h124q0 -131 82 -201q82 -69 220 -69t218 56
q78 56 78 152t-94 141q-70 36 -129 48t-69 15t-113 26t-137 43q-90 52 -110 85q-42 71 -42 144q0 137 104 217t283 80q180 0 289 -86t109 -250z" />
    <glyph glyph-name="t" unicode="t" horiz-adv-x="606" 
d="M543 1053v-105h-217v-667q0 -86 13 -121t54 -49t150 0v-111q-63 -8 -113 -8q-190 0 -219 121q-12 51 -12 231v604h-187v105h187v321h127v-321h217z" />
    <glyph glyph-name="u" unicode="u" horiz-adv-x="1099" 
d="M973 1053v-1053h-119v195q-117 -225 -371 -226q-168 -1 -265 97t-97 286v701h129v-645q0 -164 60 -245t210 -81t238 112t88 277v582h127z" />
    <glyph glyph-name="v" unicode="v" horiz-adv-x="948" 
d="M940 1053l-387 -1053h-139l-406 1053h137l246 -641q29 -78 96 -285q61 197 97 295l227 631h129z" />
    <glyph glyph-name="w" unicode="w" horiz-adv-x="1517" 
d="M1501 1053l-342 -1053h-139l-209 692q-27 90 -53 207q-29 -119 -53 -207l-205 -692h-144l-342 1053h140l200 -641q18 -55 74 -273q61 246 70 277l188 637h148l200 -668q18 -59 60 -246q33 139 63 242l211 672h133z" />
    <glyph glyph-name="x" unicode="x" horiz-adv-x="985" 
d="M942 1053l-373 -492l416 -561h-164l-280 385q-18 23 -30 43q-13 20 -24 37q-23 -37 -53 -78l-278 -387h-154l408 553l-377 500h164l227 -308q29 -34 65 -98q59 86 68 98l234 308h151z" />
    <glyph glyph-name="y" unicode="y" horiz-adv-x="948" 
d="M942 1053l-414 -1092q-78 -209 -135 -285t-176 -75q-51 0 -113 10v113q57 -14 93 -15q77 -1 117 57t67 132t29 78t4 10t4 11t4 11l-424 1045h141l285 -725q16 -43 63 -187q53 174 64 201l260 711h131z" />
    <glyph glyph-name="z" unicode="z" horiz-adv-x="948" 
d="M885 1053v-90l-697 -854h725v-109h-880v104l684 840h-639v109h807z" />
    <glyph glyph-name="braceleft" unicode="{" horiz-adv-x="681" 
d="M8 590q285 0 285 307v156q0 217 82 316t297 112v-72q-152 -8 -205 -84t-53 -233v-134q0 -154 -48 -267q-48 -112 -216 -136q177 -32 225 -144q25 -59 32 -115t7 -146v-113q0 -174 51 -251t207 -85v-72q-225 13 -302 117t-77 338v129q1 161 -61 225t-224 80v72z" />
    <glyph glyph-name="bar" unicode="|" horiz-adv-x="454" 
d="M172 -438v2048h111v-2048h-111z" />
    <glyph glyph-name="braceright" unicode="}" horiz-adv-x="681" 
d="M387 84q0 -232 -77 -336t-302 -119v72q156 8 207 85t51 251v113q0 90 7 146t32 114q48 112 225 145q-168 24 -220 143q-44 100 -44 260v134q0 158 -53 234t-205 83v72q215 -11 297 -111t82 -317v-156q0 -307 285 -307v-72q-162 -16 -223 -81t-62 -224v-129z" />
    <glyph glyph-name="asciitilde" unicode="~" horiz-adv-x="1228" 
d="M924 391q-94 0 -293 68q-204 82 -301 84q-62 0 -110 -47t-58 -123h-80q23 123 77 195t171 73q82 0 317 -82q7 -4 57 -21t94 -33t109 -18q133 0 170 168h74q-9 -113 -71 -189t-156 -75z" />
    <glyph glyph-name="sterling" unicode="&#xa3;" 
d="M1053 973h-127q-4 180 -96 275t-249 95q-159 -1 -251 -79t-92 -205q0 -88 31 -149t57 -109q26 -47 34 -62h328v-67h-291q45 -98 45 -189q0 -193 -223 -385q133 64 219 64t202 -39t163 -39q129 0 241 106l66 -96q-121 -125 -301 -125q-65 1 -101 11q-73 22 -164 53
q-154 53 -265 7q-47 -19 -117 -67l-74 107q229 174 229 379q0 98 -55 213h-168v67h127q-41 74 -58 108q-54 108 -54 216q0 174 130 284q131 109 349 109t342 -127t123 -356z" />
    <glyph glyph-name="currency" unicode="&#xa4;" 
d="M569 1051q-133 -1 -228 -95t-95 -228t95 -229t228 -95t229 94q96 96 95 230q1 134 -95 228t-229 95zM139 730q0 144 92 265l-129 131l70 70l129 -131q117 92 264 92t273 -90l129 127l69 -70l-129 -129q92 -131 92 -270t-94 -262l131 -133l-69 -70l-131 133
q-114 -96 -262 -96t-271 94l-129 -129l-70 70l129 129q-94 125 -94 269z" />
    <glyph glyph-name="brokenbar" unicode="&#xa6;" horiz-adv-x="454" 
d="M172 842v512h111v-512h-111zM172 -182v512h111v-512h-111z" />
    <glyph glyph-name="section" unicode="&#xa7;" 
d="M377 451q72 -43 176 -102t188 -122q86 31 133 86t48 127q0 125 -217 258q-68 41 -173 99t-147 94q-174 -80 -174 -210q0 -131 166 -230zM557 1360q-97 0 -159 -52t-62 -142t90 -155q55 -40 236 -140q181 -101 256 -166q127 -109 126 -246q0 -98 -58 -175t-165 -120
q119 -102 119 -236t-102 -219q-102 -86 -274 -86q-172 -1 -274 101q-101 102 -106 276h127q6 -133 74 -202q67 -68 181 -68t180 54t65 129q0 75 -51 137q-38 51 -246 171q-8 4 -12 7t-10 6q-6 2 -18 10t-67 39q-56 31 -116 66t-93 71q-83 91 -96 142q-14 50 -14 97
q0 107 60 183t163 112q-102 94 -102 219t98 209t263 84q164 0 262 -94t100 -268h-125q-14 256 -250 256z" />
    <glyph glyph-name="copyright" unicode="&#xa9;" horiz-adv-x="1638" 
d="M842 291q-174 0 -291 125t-117 313t112 313t266 125t254 -84t110 -211h-91q-18 96 -86 154q-67 58 -181 57q-114 0 -194 -97t-81 -253q0 -156 84 -257t217 -101q94 0 160 52t88 142h90q-16 -121 -112 -199t-228 -79zM819 1403q-281 0 -481 -199q-200 -198 -199 -480
q0 -282 200 -480q201 -198 481 -199q280 0 480 199q200 200 199 480q1 280 -199 480t-481 199zM819 1475q311 -1 531 -221t221 -530q0 -310 -220 -530q-219 -220 -531 -220t-532 218q-220 220 -220 531t220 531t531 221z" />
    <glyph glyph-name="guillemotleft" unicode="&#xab;" horiz-adv-x="872" 
d="M395 864v-133l-192 -186l192 -183v-137l-274 256v127zM725 866v-135l-193 -186l193 -185v-135l-274 254v127z" />
    <glyph glyph-name="logicalnot" unicode="&#xac;" horiz-adv-x="1228" 
d="M104 655v99h1018v-473h-102v374h-916z" />
    <glyph glyph-name="registered" unicode="&#xae;" horiz-adv-x="819" 
d="M328 1122h73q113 0 113 64q0 44 -40 50q-40 7 -75 7h-71v-121zM264 1296h142q172 0 172 -110q0 -66 -70 -90q63 -31 63 -119q0 -33 13 -57h-68q-6 20 -7 42q-4 80 -30 94q-27 13 -94 13h-57v-149h-64v376zM408 1425q-130 0 -224 -94t-94 -226t93 -226q93 -95 225 -95
t225 94q94 94 94 227q0 132 -94 226t-225 94zM409 1481q155 0 265 -110q110 -109 108 -265q0 -156 -110 -266t-264 -111q-154 0 -264 111q-110 110 -110 266t110 266t265 109z" />
    <glyph glyph-name="degree" unicode="&#xb0;" horiz-adv-x="819" 
d="M410 1360q-84 0 -144 -60t-61 -146q0 -85 60 -144q61 -60 145 -60t144 60t60 144q0 86 -60 146t-144 60zM410 1458q127 0 215 -88t88 -215t-88 -215t-215 -88t-215 88t-89 215q0 127 88 215t216 88z" />
    <glyph glyph-name="plusminus" unicode="&#xb1;" horiz-adv-x="1228" 
d="M104 -16v98h1018v-98h-1018zM559 176v365h-455v98h455v362h109v-362h454v-98h-454v-365h-109z" />
    <glyph glyph-name="mu" unicode="&#xb5;" horiz-adv-x="1099" 
d="M973 1053v-1053h-119v195q-121 -225 -371 -226q-117 0 -231 72v-465h-131v1477h129v-625q0 -153 48 -250q48 -96 218 -96q123 0 200 66t103 156q27 91 27 208v541h127z" />
    <glyph glyph-name="paragraph" unicode="&#xb6;" horiz-adv-x="1228" 
d="M1112 1368h-108v-1722h-111v1722h-258v-1722h-111v893q-200 10 -312 129q-112 118 -112 334t144 336t381 120h487v-90z" />
    <glyph glyph-name="periodcentered" unicode="&#xb7;" horiz-adv-x="569" 
d="M371 711v-211h-168v211h168z" />
    <glyph glyph-name="guillemotright" unicode="&#xbb;" horiz-adv-x="872" 
d="M147 864l273 -254v-125l-273 -258v133l193 187l-193 184v133zM477 866l275 -260v-123l-275 -256v133l193 185l-193 182v139z" />
    <glyph glyph-name="divide" unicode="&#xf7;" horiz-adv-x="1228" 
d="M541 754v204h143v-204h-143zM541 27v204h143v-204h-143zM104 442v101h1018v-101h-1018z" />
    <glyph glyph-name="florin" unicode="&#x192;" 
d="M127 -358q-45 0 -113 8l21 110q43 -6 82 -6q104 0 148 62t79 245l139 734h-207l21 100h207l39 209q31 162 88 235q80 104 246 105q68 0 127 -8l-23 -109q-49 6 -98 6q-91 0 -139 -52t-72 -179l-41 -207h231l-18 -100h-232l-141 -752q-25 -129 -51 -197
q-76 -204 -293 -204z" />
    <glyph glyph-name="afii10023" unicode="&#x401;" horiz-adv-x="1214" 
d="M1159 1458v-119h-872v-526h817v-117h-817v-577h880v-119h-1020v1458h1012zM557 1806v-209h-135v209h135zM928 1806v-209h-133v209h133z" />
    <glyph glyph-name="afii10051" unicode="&#x402;" horiz-adv-x="1536" 
d="M973 889q211 -1 341 -151t130 -400t-144 -421t-393 -171v121q395 27 396 485q1 188 -91 304t-260 116t-261 -110q-93 -111 -93 -320v-342h-139v1337h-469v121h1159v-121h-551v-659h6q48 102 148 156t221 55z" />
    <glyph glyph-name="afii10052" unicode="&#x403;" horiz-adv-x="1062" 
d="M770 1847l-258 -288h-102l202 288h158zM283 0h-138v1458h904v-121h-766v-1337z" />
    <glyph glyph-name="afii10053" unicode="&#x404;" horiz-adv-x="1441" 
d="M80 716q0 335 181 556t499 221q221 0 396 -130t200 -343h-139q-33 162 -158 257t-303 95q-223 0 -368 -152q-144 -153 -167 -407h791v-117h-795q11 -278 155 -444t380 -166q200 0 322 115t157 307h137q-35 -250 -203 -395t-417 -146q-303 0 -486 207q-182 207 -182 542z
" />
    <glyph glyph-name="afii10054" unicode="&#x405;" horiz-adv-x="1290" 
d="M630 1370q-176 0 -274 -72q-96 -72 -96 -202q0 -99 52 -146q30 -27 56 -44t96 -39t171 -44q292 -65 360 -100q125 -64 170 -138t45 -206t-83 -232t-201 -139t-264 -39q-272 0 -428 133q-155 133 -154 367v12h133q0 -199 122 -299q121 -100 323 -100t311 80t109 219
t-104 197q-103 58 -390 127q-92 20 -136 32t-118 43t-110 67t-64 97q-29 61 -29 143q0 184 136 292t373 108t378 -114t151 -335h-135q-8 162 -116 247t-284 85z" />
    <glyph glyph-name="afii10055" unicode="&#x406;" horiz-adv-x="454" 
d="M297 1458v-1458h-139v1458h139z" />
    <glyph glyph-name="afii10056" unicode="&#x407;" horiz-adv-x="454" 
d="M109 1806v-209h-134v209h134zM479 1806v-209h-133v209h133zM297 1458v-1458h-139v1458h139z" />
    <glyph glyph-name="afii10057" unicode="&#x408;" horiz-adv-x="1024" 
d="M881 1458v-1063q0 -428 -412 -428q-221 0 -321 113q-99 113 -99 334q0 29 2 57h133v-43q0 -174 58 -260t225 -86q166 0 221 90t55 260v1026h138z" />
    <glyph glyph-name="afii10058" unicode="&#x409;" horiz-adv-x="2048" 
d="M1849 422q0 141 -86 222t-239 81h-365v-606h365q154 0 240 81t85 222zM1989 422q0 -194 -117 -308t-318 -114h-534v1339h-524l-27 -858q-14 -512 -307 -512q-76 0 -142 29v115q38 -25 130 -25t135 104t51 371l29 895h794v-614h395q201 0 318 -114t117 -308z" />
    <glyph glyph-name="afii10059" unicode="&#x40a;" horiz-adv-x="2048" 
d="M1851 422q0 141 -86 222t-239 81h-385v-606h385q154 0 240 81t85 222zM1001 725h-714v-725h-140v1458h140v-614h714v614h140v-614h415q201 0 318 -114t117 -308t-117 -308t-318 -114h-555v725z" />
    <glyph glyph-name="afii10060" unicode="&#x40b;" horiz-adv-x="1536" 
d="M952 889q90 0 178 -26t138 -64q49 -39 79 -99q29 -60 37 -111q8 -52 9 -120v-469h-140v461q0 163 -78 235t-239 72q-80 0 -177 -29t-161 -65v-674h-139v1339h-469v119h1159v-119h-551v-538q61 33 162 61t192 27z" />
    <glyph glyph-name="afii10061" unicode="&#x40c;" horiz-adv-x="1327" 
d="M893 1847l-258 -288h-103l203 288h158zM283 0h-138v1458h138v-784q86 84 96 92l754 692h184l-658 -596l691 -862h-179l-610 768l-278 -254v-514z" />
    <glyph glyph-name="afii10062" unicode="&#x40e;" horiz-adv-x="1214" 
d="M622 1647q90 0 146 44q57 44 72 124h80q-47 -266 -299 -267q-127 0 -200 69t-89 198h80q10 -78 65 -123t145 -45zM299 88q121 0 217 201l19 39l-549 1130h149l477 -973l473 973h148l-582 -1204q-84 -174 -164 -229t-175 -55t-177 36v119q59 -37 164 -37z" />
    <glyph glyph-name="afii10145" unicode="&#x40f;" horiz-adv-x="1441" 
d="M791 0v-393h-140v393h-504v1458h140v-1339h868v1339h139v-1458h-503z" />
    <glyph glyph-name="afii10017" unicode="&#x410;" horiz-adv-x="1290" 
d="M934 571l-287 760l-295 -760h582zM725 1462l582 -1462h-154l-176 459h-668l-178 -459h-149l589 1462h154z" />
    <glyph glyph-name="afii10018" unicode="&#x411;" horiz-adv-x="1366" 
d="M1133 422q0 141 -86 222t-240 81h-520v-606h520q154 0 240 81t86 222zM1272 422q0 -194 -117 -308t-317 -114h-691v1458h1010v-119h-870v-495h551q202 0 318 -114t116 -308z" />
    <glyph glyph-name="afii10019" unicode="&#x412;" horiz-adv-x="1366" 
d="M283 700v-581h436q309 0 391 142q37 63 37 153t-38 150q-86 136 -398 136h-428zM283 1339v-526h462q145 0 246 61t101 212t-123 208q-98 45 -260 45h-426zM147 1458h625q197 0 327 -90t130 -274q0 -117 -73 -207t-179 -115q135 -27 222 -113t87 -241q0 -202 -140 -310
t-353 -108h-646v1458z" />
    <glyph glyph-name="afii10020" unicode="&#x413;" horiz-adv-x="1062" 
d="M283 0h-138v1458h904v-119h-766v-1339z" />
    <glyph glyph-name="afii10021" unicode="&#x414;" horiz-adv-x="1441" 
d="M1128 119v1220h-626v-26q0 -602 -88 -896q-47 -157 -121 -298h835zM1421 -393h-139v393h-1130v-393h-140v512h133q119 221 158 444q23 127 41 238t18 384v273h906v-1339h153v-512z" />
    <glyph glyph-name="afii10022" unicode="&#x415;" horiz-adv-x="1214" 
d="M1159 1458v-119h-872v-526h817v-117h-817v-577h880v-119h-1020v1458h1012z" />
    <glyph glyph-name="afii10024" unicode="&#x416;" horiz-adv-x="2027" 
d="M944 1458h139v-766l721 766h189l-607 -627l658 -831h-180l-576 729l-205 -213v-516h-139v516l-205 213l-575 -729h-180l657 831l-606 627h188l721 -766v766z" />
    <glyph glyph-name="afii10025" unicode="&#x417;" horiz-adv-x="1290" 
d="M664 -31q-272 0 -427 133t-155 367v12h133q0 -199 122 -299q123 -100 319 -100t305 99t109 235t-96 214q-95 79 -237 79h-233v118h233q125 0 209 68q84 69 84 201t-98 206t-267 74t-281 -85t-120 -247h-135q9 219 157 334t376 115t368 -100q139 -100 139 -297
q-1 -109 -65 -194t-150 -116v-6q118 -31 186 -121t68 -224t-81 -257t-250 -178q-96 -31 -213 -31z" />
    <glyph glyph-name="afii10026" unicode="&#x418;" horiz-adv-x="1441" 
d="M147 0v1458h140v-1308l827 1308h180v-1458h-139v1309l-827 -1309h-181z" />
    <glyph glyph-name="afii10027" unicode="&#x419;" horiz-adv-x="1441" 
d="M147 0v1458h140v-1308l827 1308h180v-1458h-139v1309l-827 -1309h-181zM718 1647q90 0 146 44q57 44 72 124h80q-47 -266 -299 -267q-127 0 -200 69t-89 198h80q10 -78 65 -123t145 -45z" />
    <glyph glyph-name="afii10028" unicode="&#x41a;" horiz-adv-x="1327" 
d="M283 0h-138v1458h138v-784l850 784h184l-658 -596l691 -862h-179l-610 768l-278 -254v-514z" />
    <glyph glyph-name="afii10029" unicode="&#x41b;" horiz-adv-x="1366" 
d="M1225 0h-140v1339h-587l-27 -858q-14 -512 -307 -512q-82 0 -148 29v115q39 -25 144 -25q84 0 127 104t51 371l29 895h858v-1458z" />
    <glyph glyph-name="afii10030" unicode="&#x41c;" horiz-adv-x="1705" 
d="M1563 1458v-1458h-133v881q0 213 16 458q-43 -135 -96 -264l-430 -1075h-125l-437 1063q-45 109 -96 268q16 -240 17 -446v-885h-134v1458h189l424 -1040q20 -51 100 -275q10 27 43 123t53 148l418 1044h191z" />
    <glyph glyph-name="afii10031" unicode="&#x41d;" horiz-adv-x="1441" 
d="M1294 1458v-1458h-139v705h-870v-705h-140v1458h140v-635h870v635h139z" />
    <glyph glyph-name="afii10032" unicode="&#x41e;" horiz-adv-x="1517" 
d="M1307 727q1 289 -151 467t-398 178t-397 -176t-151 -466t150 -467t398 -177t398 176t151 465zM757 1493q306 0 497 -213q192 -213 192 -554t-190 -551t-499 -210q-308 0 -497 211q-188 211 -188 553t189 553q190 211 496 211z" />
    <glyph glyph-name="afii10033" unicode="&#x41f;" horiz-adv-x="1441" 
d="M1294 1458v-1458h-139v1339h-870v-1339h-140v1458h1149z" />
    <glyph glyph-name="afii10034" unicode="&#x420;" horiz-adv-x="1290" 
d="M293 1339v-600h442q162 0 262 73q101 74 101 226t-92 227t-256 74h-457zM154 1458h624q211 0 335 -105t124 -309t-125 -313t-338 -108h-481v-623h-139v1458z" />
    <glyph glyph-name="afii10035" unicode="&#x421;" horiz-adv-x="1441" 
d="M748 -33q-303 0 -486 207q-182 207 -182 542t181 556t499 221q221 0 396 -130t200 -343h-139q-33 162 -158 257t-303 95q-242 0 -390 -177t-148 -468t146 -466t372 -175t352 130q124 130 149 343h137q-24 -270 -194 -431t-432 -161z" />
    <glyph glyph-name="afii10036" unicode="&#x422;" 
d="M1151 1458v-119h-512v-1339h-139v1339h-512v119h1163z" />
    <glyph glyph-name="afii10037" unicode="&#x423;" horiz-adv-x="1214" 
d="M299 88q121 0 217 201l19 39l-549 1130h149l477 -973l473 973h148l-582 -1204q-84 -174 -164 -229t-175 -55t-177 36v119q59 -37 164 -37z" />
    <glyph glyph-name="afii10038" unicode="&#x424;" horiz-adv-x="1536" 
d="M199 742q0 -214 137 -324t362 -125v887q-229 -12 -364 -118t-135 -320zM1337 742q0 214 -135 320t-364 118v-887q225 15 362 125t137 324zM838 1298q268 0 452 -148t185 -413q1 -266 -185 -413t-452 -148v-176h-140v176q-266 0 -451 148t-185 413t184 413t452 148v160
h140v-160z" />
    <glyph glyph-name="afii10039" unicode="&#x425;" horiz-adv-x="1175" 
d="M1165 1458l-497 -708l526 -750h-168l-364 522q-43 61 -56 85q-12 24 -22 40q-25 -25 -84 -123l-369 -524h-160l531 750l-498 708h164l326 -467q18 -27 48 -77t42 -68q51 74 94 147l334 465h153z" />
    <glyph glyph-name="afii10040" unicode="&#x426;" horiz-adv-x="1478" 
d="M1448 -393h-139v393h-1162v1458h140v-1339h868v1339h139v-1339h154v-512z" />
    <glyph glyph-name="afii10041" unicode="&#x427;" horiz-adv-x="1310" 
d="M104 1458h140v-395q0 -163 79 -236t238 -71q225 0 463 59v643h139v-1458h-139v696q-74 -18 -217 -40q-534 -82 -656 167q-30 59 -38 111t-9 121v403z" />
    <glyph glyph-name="afii10042" unicode="&#x428;" horiz-adv-x="2138" 
d="M147 0v1458h140v-1339h712v1339h140v-1339h712v1339h140v-1458h-1844z" />
    <glyph glyph-name="afii10043" unicode="&#x429;" horiz-adv-x="2174" 
d="M147 0v1458h140v-1339h712v1339h140v-1339h712v1339h140v-1339h153v-512h-139v393h-1858z" />
    <glyph glyph-name="afii10044" unicode="&#x42a;" horiz-adv-x="1607" 
d="M1409 422q0 141 -86 222t-240 81h-479v-606h479q154 0 240 81t86 222zM1548 422q0 -194 -116 -308t-318 -114h-649v1339h-475v119h614v-614h510q202 0 318 -114t116 -308z" />
    <glyph glyph-name="afii10045" unicode="&#x42b;" horiz-adv-x="1722" 
d="M1436 1458h139v-1458h-139v1458zM1092 422q0 141 -86 222t-240 81h-479v-606h479q154 0 240 81t86 222zM1231 422q0 -194 -117 -308t-317 -114h-650v1458h140v-614h510q201 0 317 -114t117 -308z" />
    <glyph glyph-name="afii10046" unicode="&#x42c;" horiz-adv-x="1290" 
d="M1092 422q0 141 -86 222t-240 81h-479v-606h479q154 0 240 81t86 222zM1231 422q0 -194 -117 -308t-317 -114h-650v1458h140v-614h510q201 0 317 -114t117 -308z" />
    <glyph glyph-name="afii10047" unicode="&#x42d;" horiz-adv-x="1441" 
d="M682 1493q316 0 498 -221t182 -556t-182 -542t-486 -207q-250 -1 -418 145t-202 396h137q35 -194 158 -308t321 -114q236 0 380 166t155 444h-774v117h770q-23 254 -167 407t-368 152q-178 0 -303 -95t-158 -257h-139q25 213 200 343t396 130z" />
    <glyph glyph-name="afii10048" unicode="&#x42e;" horiz-adv-x="2048" 
d="M1288 1372q-246 0 -396 -176t-151 -466q0 -290 150 -467q149 -177 397 -177t399 176t150 465q0 289 -151 467q-152 178 -398 178zM1298 1493q294 0 486 -213t192 -554t-190 -551t-496 -210t-492 204q-187 204 -196 536h-319v-705h-140v1458h140v-635h323q27 303 212 487
t480 183z" />
    <glyph glyph-name="afii10049" unicode="&#x42f;" horiz-adv-x="1290" 
d="M1004 766v573h-443q-156 -1 -245 -73t-89 -211t89 -214t245 -75h443zM88 1057q0 189 119 295t323 106h613v-1458h-139v647h-314l-502 -647h-180l502 647q-194 6 -308 114t-114 296z" />
    <glyph glyph-name="afii10065" unicode="&#x430;" horiz-adv-x="1062" 
d="M462 78q130 0 234 89t105 234v172q-39 -44 -193 -61q-153 -18 -198 -30q-137 -35 -182 -100q-28 -42 -27 -103q0 -92 65 -147q66 -54 196 -54zM526 975q-263 0 -286 -248h-123q8 170 119 262t298 92q187 1 290 -77t104 -226v-573q0 -41 2 -59q5 -47 67 -48q27 0 50 6v-98
q-47 -16 -117 -16t-96 51t-27 141q-133 -211 -397 -211q-162 0 -253 78t-91 217q0 285 391 326q20 2 57 5t54 5t69 8q72 8 127 37q37 25 37 101q0 125 -70 176t-205 51z" />
    <glyph glyph-name="afii10066" unicode="&#x431;" 
d="M217 519q0 -197 101 -319q102 -122 260 -122t259 122t101 316q0 192 -100 313t-259 121t-261 -117q-101 -118 -101 -314zM1067 518q0 -248 -135 -398t-354 -151q-138 1 -238 53q-252 133 -252 584q0 619 301 766q100 49 254 60l98 6q78 4 109 16t43 39h143
q-16 -90 -78 -125t-206 -45l-156 -10q-178 -12 -273 -130t-130 -362h6q53 106 158 172t233 66q215 -1 346 -147t131 -394z" />
    <glyph glyph-name="afii10067" unicode="&#x432;" horiz-adv-x="1062" 
d="M864 309q0 190 -264 191h-350v-391h350q264 -1 264 200zM823 770q0 174 -223 174h-350v-344h350q109 0 166 45t57 125zM993 295q0 -143 -98 -219t-281 -76h-493v1053h493q162 0 250 -65t88 -185q0 -190 -182 -242v-4q223 -39 223 -262z" />
    <glyph glyph-name="afii10068" unicode="&#x433;" horiz-adv-x="819" 
d="M831 944h-569v-944h-129v1053h698v-109z" />
    <glyph glyph-name="afii10069" unicode="&#x434;" 
d="M842 109v835h-434v-70q0 -496 -138 -765h572zM1118 -336h-129v336h-848v-336h-129v445h125q145 268 146 809v135h688v-944h147v-445z" />
    <glyph glyph-name="afii10070" unicode="&#x435;" horiz-adv-x="1062" 
d="M536 975q-154 -1 -236 -105q-83 -104 -103 -270h684q-11 176 -101 276t-244 99zM66 514q0 250 134 409t352 159t338 -158t120 -392v-36h-813q0 -182 89 -304t267 -122q260 0 321 276h125q-35 -178 -151 -279t-318 -101q-200 0 -332 149t-132 399z" />
    <glyph glyph-name="afii10072" unicode="&#x436;" horiz-adv-x="1517" 
d="M694 1053h129v-535l486 535h174l-412 -439l457 -614h-158l-389 528l-158 -163v-365h-129v365l-157 163l-390 -528h-157l456 614l-411 439h174l485 -537v537z" />
    <glyph glyph-name="afii10073" unicode="&#x437;" horiz-adv-x="993" 
d="M883 799q1 -88 -51 -154t-119 -80v-4q86 -15 145 -75t60 -173q0 -164 -123 -254t-313 -90q-190 1 -303 97q-112 96 -122 264h129q35 -252 310 -252q160 0 223 66t63 159q0 92 -55 144t-170 53h-176v98h145q96 0 160 51q63 51 64 142q0 184 -262 184t-283 -227h-127
q27 336 414 335q176 -1 284 -69t107 -215z" />
    <glyph glyph-name="afii10074" unicode="&#x438;" horiz-adv-x="1099" 
d="M979 0h-129v901l-569 -901h-160v1053h129v-901l569 901h160v-1053z" />
    <glyph glyph-name="afii10075" unicode="&#x439;" horiz-adv-x="1099" 
d="M979 0h-129v901l-569 -901h-160v1053h129v-901l569 901h160v-1053zM548 1294q90 0 146 44q57 44 72 124h80q-47 -266 -299 -266q-127 0 -200 68t-89 198h80q10 -78 65 -123t145 -45z" />
    <glyph glyph-name="afii10076" unicode="&#x43a;" horiz-adv-x="1024" 
d="M252 0h-129v1053h129v-539l586 539h172l-449 -410l475 -643h-162l-407 555l-215 -199v-356z" />
    <glyph glyph-name="afii10077" unicode="&#x43b;" horiz-adv-x="1099" 
d="M983 0h-129v944h-430l-18 -528q-8 -230 -76 -334t-199 -105q-57 0 -113 23v104q37 -18 115 -18q133 0 146 336l20 631h684v-1053z" />
    <glyph glyph-name="afii10078" unicode="&#x43c;" horiz-adv-x="1366" 
d="M1247 0h-129v866h-6l-371 -866h-114l-371 866h-6v-866h-129v1053h172l393 -908l389 908h172v-1053z" />
    <glyph glyph-name="afii10079" unicode="&#x43d;" horiz-adv-x="1099" 
d="M979 0h-129v496h-600v-496h-129v1053h129v-449h600v449h129v-1053z" />
    <glyph glyph-name="afii10080" unicode="&#x43e;" 
d="M569 975q-168 0 -268 -122t-100 -329q0 -208 99 -328t270 -120t270 121q98 121 98 327t-100 329q-101 122 -269 122zM70 526q0 254 136 406t364 151q228 0 363 -151q134 -152 134 -409t-133 -405q-132 -148 -362 -148t-366 150q-136 152 -136 406z" />
    <glyph glyph-name="afii10081" unicode="&#x43f;" horiz-adv-x="1099" 
d="M979 0h-129v944h-600v-944h-129v1053h858v-1053z" />
    <glyph glyph-name="afii10082" unicode="&#x440;" horiz-adv-x="1175" 
d="M606 977q-166 0 -261 -121t-95 -330q0 -210 97 -330t261 -120t261 122t97 326t-96 329q-98 124 -264 124zM246 1053v-203q115 233 377 233q215 1 345 -153t130 -406t-129 -404t-342 -153q-266 0 -373 228v-588h-125v1446h117z" />
    <glyph glyph-name="afii10083" unicode="&#x441;" horiz-adv-x="1062" 
d="M561 -31q-221 0 -354 150q-133 151 -133 403t134 407t357 154q182 0 296 -96t136 -266h-131q-51 256 -299 256q-166 0 -263 -122t-97 -329q0 -206 94 -328q95 -122 241 -122t230 79t105 222h129q-27 -184 -143 -296t-302 -112z" />
    <glyph glyph-name="afii10084" unicode="&#x442;" horiz-adv-x="909" 
d="M911 944h-391v-944h-129v944h-391v109h911v-109z" />
    <glyph glyph-name="afii10085" unicode="&#x443;" horiz-adv-x="948" 
d="M942 1053l-414 -1092q-78 -209 -135 -285t-176 -75q-51 0 -113 10v113q57 -14 93 -15q77 -1 117 57t67 132t29 78t4 10t4 11t4 11l-424 1045h141l285 -725q16 -43 63 -187q53 174 64 201l260 711h131z" />
    <glyph glyph-name="afii10086" unicode="&#x444;" horiz-adv-x="1638" 
d="M756 307v447q0 98 -68 161t-166 64q-139 0 -227 -113t-88 -340t84 -338t229 -110q100 0 168 64t68 165zM1434 526q0 227 -88 340t-228 113q-98 1 -166 -63t-67 -162v-447q0 -102 67 -166q68 -63 168 -63q145 0 230 110q84 111 84 338zM1160 1087q186 1 294 -145t109 -410
q0 -264 -118 -414t-292 -149q-84 0 -156 39t-108 103h-4v-504l-129 2v502q0 -2 -4 0q-37 -63 -109 -103t-156 -39q-173 0 -291 150q-118 149 -118 413t108 410q109 145 295 145t271 -143h4v514h129v-514h4q85 143 271 143z" />
    <glyph glyph-name="afii10087" unicode="&#x445;" horiz-adv-x="985" 
d="M942 1053l-373 -492l416 -561h-164l-280 385q-18 23 -30 43q-13 20 -24 37q-23 -37 -53 -78l-278 -387h-154l408 553l-377 500h164l227 -308q29 -34 65 -98q59 86 68 98l234 308h151z" />
    <glyph glyph-name="afii10088" unicode="&#x446;" 
d="M1118 -336h-129v336h-874v1053h129v-944h600v944h129v-944h145v-445z" />
    <glyph glyph-name="afii10089" unicode="&#x447;" horiz-adv-x="1024" 
d="M86 778v275h129v-289q0 -147 79 -182q60 -27 152 -27q178 0 334 63v435h129v-1053h-129v502q-172 -64 -349 -64t-261 81t-84 259z" />
    <glyph glyph-name="afii10090" unicode="&#x448;" horiz-adv-x="1615" 
d="M121 0v1053h129v-944h493v944h129v-944h494v944h129v-1053h-1374z" />
    <glyph glyph-name="afii10091" unicode="&#x449;" horiz-adv-x="1654" 
d="M115 0v1053h129v-944h493v944h129v-944h494v944h129v-944h145v-445h-129v336h-1390z" />
    <glyph glyph-name="afii10092" unicode="&#x44a;" horiz-adv-x="1251" 
d="M1079 318q0 100 -62 156t-173 56h-369v-421h369q113 0 174 54t61 155zM346 944h-346v109h475v-414h399q154 0 244 -86t90 -235q0 -150 -90 -234t-244 -84h-528v944z" />
    <glyph glyph-name="afii10093" unicode="&#x44b;" horiz-adv-x="1366" 
d="M1120 1053h129v-1053h-129v1053zM557 109q113 0 175 54t61 155q-1 100 -63 156t-173 56h-311v-421h311zM117 1053h129v-414h342q154 0 244 -86t90 -235q0 -150 -90 -234t-244 -84h-471v1053z" />
    <glyph glyph-name="afii10094" unicode="&#x44c;" horiz-adv-x="1024" 
d="M854 318q0 100 -62 156t-174 56h-368v-421h368q113 0 175 54q61 54 61 155zM121 1053h129v-414h399q154 0 244 -86t90 -235q0 -150 -90 -234t-244 -84h-528v1053z" />
    <glyph glyph-name="afii10095" unicode="&#x44d;" horiz-adv-x="1062" 
d="M498 1083q223 -1 357 -155t134 -407t-133 -403t-354 -149q-176 1 -290 101t-149 270h130q61 -264 329 -264q136 0 229 110t103 297h-483v109h483q-16 178 -112 281t-246 104q-236 0 -293 -232h-133q29 160 140 249q112 89 288 89z" />
    <glyph glyph-name="afii10096" unicode="&#x44e;" horiz-adv-x="1556" 
d="M987 975q-168 0 -268 -122q-101 -122 -101 -329q0 -208 100 -328t270 -120q171 0 269 121q99 121 99 327t-100 329q-100 122 -269 122zM998 1083q218 0 353 -151q134 -152 134 -409t-133 -405q-134 -148 -360 -148t-360 142t-145 384h-237v-496h-129v1053h129v-449h242
q23 221 155 350q133 129 351 129z" />
    <glyph glyph-name="afii10097" unicode="&#x44f;" horiz-adv-x="1062" 
d="M807 944h-373q-104 0 -162 -52t-59 -144q0 -92 58 -144t163 -53h373v393zM936 0h-129v442h-262l-371 -442h-168l391 446q-143 10 -228 90t-85 216q0 137 87 219t232 82h533v-1053z" />
    <glyph glyph-name="afii10071" unicode="&#x451;" horiz-adv-x="1062" 
d="M536 975q-154 -1 -236 -105q-83 -104 -103 -270h684q-11 176 -101 276t-244 99zM66 514q0 250 134 409t352 159t338 -158t120 -392v-36h-813q0 -182 89 -304t267 -122q260 0 321 276h125q-35 -178 -151 -279t-318 -101q-200 0 -332 149t-132 399zM414 1458v-205h-135v205
h135zM784 1458v-205h-133v205h133z" />
    <glyph glyph-name="afii10099" unicode="&#x452;" horiz-adv-x="1099" 
d="M979 190q0 -238 -146 -406t-387 -175v121q186 10 295 145t109 334v153q0 319 -264 320q-150 0 -243 -100t-93 -263v-319h-129v944h-107v109h107v405h129v-405h477v-109h-477v-366h4q94 213 356 213q369 0 369 -408v-193z" />
    <glyph glyph-name="afii10100" unicode="&#x453;" horiz-adv-x="819" 
d="M674 1503l-258 -289h-105l205 289h158zM811 944h-561v-944h-129v1053h690v-109z" />
    <glyph glyph-name="afii10101" unicode="&#x454;" horiz-adv-x="1062" 
d="M74 522q0 252 134 407t357 154q176 0 288 -89t140 -249h-133q-57 231 -293 232q-153 1 -247 -103t-111 -282h493v-109h-493q10 -188 103 -298q94 -109 230 -109q270 1 328 264h129q-35 -170 -149 -270t-289 -101q-221 0 -354 150q-133 151 -133 403z" />
    <glyph glyph-name="afii10102" unicode="&#x455;" horiz-adv-x="985" 
d="M879 745h-125q-18 229 -285 230q-113 0 -179 -47t-67 -122q0 -75 39 -111q39 -37 113 -56q73 -21 145 -37q233 -54 309 -118q35 -30 61 -80t25 -113q0 -145 -115 -235q-116 -89 -310 -89q-194 1 -308 99q-113 98 -116 278h124q0 -131 82 -201q82 -69 220 -69t218 56
q78 56 78 152t-94 141q-70 36 -129 48t-69 15t-113 26t-137 43q-90 52 -110 85q-42 71 -42 144q0 137 104 217t283 80q180 0 289 -86t109 -250z" />
    <glyph glyph-name="afii10103" unicode="&#x456;" horiz-adv-x="378" 
d="M254 1053v-1053h-129v1053h129zM254 1464v-211h-129v211h129z" />
    <glyph glyph-name="afii10104" unicode="&#x457;" horiz-adv-x="378" 
d="M72 1462v-209h-135v209h135zM442 1462v-209h-133v209h133zM254 1053v-1053h-129v1053h129z" />
    <glyph glyph-name="afii10105" unicode="&#x458;" horiz-adv-x="378" 
d="M260 1466v-211h-127v211h127zM260 1053v-1123q0 -88 -7 -139t-31 -101q-46 -95 -216 -93q-20 0 -63 6v106q23 -2 63 -2t67 9q60 21 60 202v1135h127z" />
    <glyph glyph-name="afii10106" unicode="&#x459;" horiz-adv-x="1593" 
d="M1167 109q113 0 175 54t61 155q-1 100 -63 156t-173 56h-254v-421h254zM1198 639q154 -1 244 -87t90 -234t-90 -234q-90 -84 -244 -84h-414v944h-360l-18 -528q-8 -230 -76 -334t-199 -105q-57 0 -113 23v104q37 -18 115 -18q133 0 146 336l20 631h614v-414h285z" />
    <glyph glyph-name="afii10107" unicode="&#x45a;" horiz-adv-x="1593" 
d="M1163 109q113 0 175 54t61 155q-1 100 -63 156t-173 56h-266v-421h266zM1194 639q154 -1 244 -87t90 -234t-90 -234q-90 -84 -244 -84h-426v530h-518v-530h-129v1053h129v-414h518v414h129v-414h297z" />
    <glyph glyph-name="afii10108" unicode="&#x45b;" horiz-adv-x="1099" 
d="M14 944v109h107v405h129v-405h477v-109h-477v-366h4q94 213 356 213q369 0 369 -408v-383h-129v362q0 319 -264 320q-150 0 -243 -100t-93 -263v-319h-129v944h-107z" />
    <glyph glyph-name="afii10109" unicode="&#x45c;" horiz-adv-x="1024" 
d="M776 1503l-258 -289h-104l204 289h158zM252 0h-129v1053h129v-539l586 539h172l-449 -410l479 -643h-161l-412 555l-215 -199v-356z" />
    <glyph glyph-name="afii10110" unicode="&#x45e;" horiz-adv-x="948" 
d="M486 1294q89 0 147 44q57 44 72 124h79q-47 -266 -299 -266q-127 0 -199 68t-89 198h79q10 -78 66 -123t144 -45zM942 1053l-414 -1092q-78 -209 -135 -285t-176 -75q-51 0 -113 10v113q57 -14 93 -15q77 -1 117 57t67 132t29 78t4 10t4 11t4 11l-424 1045h141l285 -725
q16 -43 63 -187q53 174 64 201l260 711h131z" />
    <glyph glyph-name="afii10193" unicode="&#x45f;" horiz-adv-x="1099" 
d="M614 0v-336h-129v336h-364v1053h129v-944h600v944h129v-1053h-365z" />
    <glyph glyph-name="afii10050" unicode="&#x490;" horiz-adv-x="1062" 
d="M1049 1339h-762v-1339h-140v1458h762v334h140v-453z" />
    <glyph glyph-name="afii10098" unicode="&#x491;" horiz-adv-x="819" 
d="M805 944h-555v-944h-129v1053h555v321h129v-430z" />
    <glyph glyph-name="endash" unicode="&#x2013;" horiz-adv-x="1024" 
d="M1024 625v-125h-1024v125h1024z" />
    <glyph glyph-name="emdash" unicode="&#x2014;" horiz-adv-x="2048" 
d="M2048 625v-125h-2048v125h2048z" />
    <glyph glyph-name="quoteleft" unicode="&#x2018;" horiz-adv-x="569" 
d="M197 993v226q0 89 49 167t131 103v-88q-92 -53 -92 -195h80v-213h-168z" />
    <glyph glyph-name="quoteright" unicode="&#x2019;" horiz-adv-x="569" 
d="M371 1458v-225q0 -90 -49 -168t-132 -102v88q92 53 93 194h-80v213h168z" />
    <glyph glyph-name="quotesinglbase" unicode="&#x201a;" horiz-adv-x="569" 
d="M371 213v-225q0 -90 -49 -168t-132 -103v86q92 59 93 197h-80v213h168z" />
    <glyph glyph-name="quotedblleft" unicode="&#x201c;" horiz-adv-x="757" 
d="M141 997v177q0 242 172 313v-86q-90 -53 -90 -197h78v-207h-160zM455 997v177q0 242 172 313v-86q-90 -53 -90 -197h77v-207h-159z" />
    <glyph glyph-name="quotedblright" unicode="&#x201d;" horiz-adv-x="757" 
d="M612 1458v-176q0 -242 -172 -313v86q90 53 90 196h-77v207h159zM299 1458v-176q0 -242 -172 -313v86q90 53 90 196h-78v207h160z" />
    <glyph glyph-name="quotedblbase" unicode="&#x201e;" horiz-adv-x="757" 
d="M612 207v-176q0 -242 -172 -314v86q90 53 90 197h-77v207h159zM299 207v-176q0 -242 -172 -314v86q90 53 90 197h-78v207h160z" />
    <glyph glyph-name="dagger" unicode="&#x2020;" 
d="M1040 1008v-111h-413v-1206h-121v1206h-408v111h408v450h121v-450h413z" />
    <glyph glyph-name="daggerdbl" unicode="&#x2021;" 
d="M1040 1053v-111h-413v-735h413v-111h-413v-401h-121v401h-408v111h408v735h-408v111h408v405h121v-405h413z" />
    <glyph glyph-name="bullet" unicode="&#x2022;" horiz-adv-x="1024" 
d="M512 1094q152 0 258 -106t106 -259q0 -152 -106 -258t-258 -106t-258 106t-107 258q1 153 107 259t258 106z" />
    <glyph glyph-name="ellipsis" unicode="&#x2026;" horiz-adv-x="2048" 
d="M1634 0v205h144v-205h-144zM952 0v205h144v-205h-144zM270 0v205h144v-205h-144z" />
    <glyph glyph-name="perthousand" unicode="&#x2030;" horiz-adv-x="2275" 
d="M434 1364q-94 0 -145 -70t-51 -198q0 -254 194 -254q94 0 146 66q51 67 51 194q-1 126 -51 194t-144 68zM1847 586q-96 0 -147 -69t-51 -195t51 -192q51 -67 147 -67q193 -1 193 261t-193 262zM1122 586q-194 0 -194 -262t194 -261q194 0 195 265q-1 126 -51 192t-144 66
zM434 1450q145 0 225 -90t80 -254t-82 -257t-227 -93t-224 90t-79 256t81 257t226 91zM1540 322q0 168 80 258q80 92 228 92t227 -92q77 -92 77 -254t-80 -255t-228 -93t-226 88t-78 256zM1121 670q147 0 227 -88t80 -254t-78 -258t-227 -92t-227 86q-78 88 -79 257
q0 169 79 259t225 90zM1298 1491l-964 -1559h-101l969 1559h96z" />
    <glyph glyph-name="guilsinglleft" unicode="&#x2039;" horiz-adv-x="530" 
d="M381 864v-137l-191 -182l191 -183v-137l-272 256v127z" />
    <glyph glyph-name="guilsinglright" unicode="&#x203a;" horiz-adv-x="530" 
d="M152 866l270 -256v-129l-270 -254v138l190 182l-190 182v137z" />
    <glyph glyph-name="afii61352" unicode="&#x2116;" horiz-adv-x="1982" 
d="M1804 567q0 95 -51 151t-129 56t-129 -56t-51 -150t51 -150q51 -58 129 -58t129 56t51 151zM1214 0h-155l-770 1190h-4v-1190h-140v1415h156l770 -1190h4v1190h139v-1415zM1913 0h-574v109h574v-109zM1911 568q0 -136 -79 -217t-211 -81t-208 78t-76 218t76 219t208 79
t211 -80t79 -216z" />
    <glyph glyph-name="trademark" unicode="&#x2122;" horiz-adv-x="2027" 
d="M975 729v729h127l231 -604l232 604h123v-729h-76v645l-246 -645h-72l-243 645v-645h-76zM500 729v653h-256v76h596v-76h-256v-653h-84z" />
    <glyph glyph-name="Delta" unicode="&#x2206;" horiz-adv-x="1366" 
d="M190 106h981l-491 1246zM745 1458l590 -1458h-1302l583 1458h129z" />
    <glyph glyph-name="radical" unicode="&#x221a;" horiz-adv-x="1228" 
d="M1040 1610l-430 -2048h-112l-344 708l-93 -45l-38 82l180 90l340 -710l397 1923h100z" />
    <glyph glyph-name="infinity" unicode="&#x221e;" horiz-adv-x="1478" 
d="M180 506q0 -82 48 -132t128 -50q136 0 316 180q-2 2 -32 26t-38 32q-151 132 -257 132q-69 0 -117 -53t-48 -135zM1298 508q0 84 -47 136t-131 52t-207 -101q-27 -22 -37 -31q-10 -8 -36 -32q-27 -24 -31 -28q57 -51 96 -84t104 -65q65 -31 131 -31t112 50t46 134z
M1397 509q0 -126 -76 -205q-75 -79 -179 -79t-188 47t-213 168q-152 -127 -181 -146q-30 -19 -89 -44t-119 -25q-118 0 -194 78t-76 202t76 206t178 82t169 -42q68 -42 105 -73t64 -52t67 -61q80 80 146 132q65 51 92 62q85 34 141 36q121 0 199 -80t78 -206z" />
    <glyph glyph-name="approxequal" unicode="&#x2248;" horiz-adv-x="1228" 
d="M914 225q-94 0 -293 68q-209 84 -287 84t-125 -47t-57 -123h-80q22 123 76 195t171 73q82 0 318 -82q8 -4 57 -21q49 -18 96 -34t107 -16q133 0 170 167h74q-9 -113 -71 -189t-156 -75zM914 555q-94 0 -293 68q-204 82 -302 84q-63 1 -110 -47t-57 -123h-80
q22 123 76 195t171 73q82 0 318 -82q21 -11 113 -41q91 -30 147 -31q133 0 170 168h74q-9 -113 -71 -189t-156 -75z" />
    <glyph glyph-name="notequal" unicode="&#x2260;" horiz-adv-x="1228" 
d="M104 655v99h574l158 297l86 -45l-136 -252h336v-99h-389l-147 -276h536v-98h-590l-153 -289l-86 47l131 242h-320v98h373l146 276h-519z" />
    <glyph glyph-name="lessequal" unicode="&#x2264;" horiz-adv-x="1228" 
d="M106 47h1018v-98h-1018v98zM106 532v111l1018 395v-110l-882 -340l882 -340v-109z" />
    <glyph glyph-name="greaterequal" unicode="&#x2265;" horiz-adv-x="1228" 
d="M1122 47v-98h-1018v98h1018zM1122 532l-1018 -393v109l881 340l-881 340v110l1018 -395v-111z" />
    <glyph glyph-name="hyphenminus" unicode="&#xe000;" horiz-adv-x="757" 
d="M637 625v-125h-514v125h514z" />
    <glyph glyph-name="nbspace" unicode="&#xe001;" horiz-adv-x="569" 
 />
    </font>
</defs>
</svg>
